<?xml version="1.0" encoding="utf-8"?>
<!-- Generator: Adobe Illustrator 19.0.0, SVG Export Plug-In . SVG Version: 6.00 Build 0)  -->
<svg version="1.1" id="Capa_1" xmlns="http://www.w3.org/2000/svg" xmlns:xlink="http://www.w3.org/1999/xlink" x="0px" y="0px"
	 viewBox="-49 141 512 512" enable-background="new -49 141 512 512" xml:space="preserve">
<g>
	<path fill="#303C42" d="M356.3,290.4c-8.3,0-16.4,1.2-24.3,3.1c-23.9-53.1-77-88.4-135.7-88.4c-77.2,0-141,58.4-148.3,134
		C17.9,350.9-3.7,379.3-5.8,413c-26,17.2-43.2,46.6-43.2,80c0,52.9,43.1,96,96,96h234.7c41.2,0,74.7-33.5,74.7-74.7
		c0-3.7-0.6-7.2-1.1-10.7h1.1c58.8,0,106.7-47.9,106.7-106.7S415.1,290.4,356.3,290.4z"/>
	<g>
		<path fill="#D9D9D9" d="M356.3,482.3h-7.5c-7.6-15.8-20.4-28.5-36.3-35.8C305.3,382.4,251,333,185.6,333
			c-47.4,0-90.5,26.5-112.6,67.9c-8.5-2.4-17.2-3.9-26.1-3.9c-10.4,0-20.3,2.1-29.7,5.2c7.2-27.4,32-47.8,61.7-47.8
			c5.9,0,10.7-4.8,10.7-10.7c0-5.9-4.8-10.7-10.7-10.7c-3.1,0-6,0.6-9,0.9c9.4-61.3,62.6-107.6,126.3-107.6
			c49.6,0,94.5,29.4,115.4,73.8c-5.2,2.4-10.2,5.1-14.9,8.3c-4.9,3.3-6.2,9.9-2.9,14.8c3.3,4.9,9.9,6.2,14.8,2.9
			c14.1-9.5,30.5-14.5,47.6-14.5c47.1,0,85.3,38.3,85.3,85.3S403.4,482.3,356.3,482.3z"/>
		<path fill="#E5E5E5" d="M281.7,567.8H47c-41.2,0-74.7-33.5-74.7-74.7S5.8,418.3,47,418.3c17.2,0,33.3,5.7,46.6,16.4
			c4.6,3.7,11.3,2.9,15-1.7s2.9-11.3-1.7-15c-4.4-3.5-9.1-6.6-14-9.3c18.8-33.3,54-54.5,92.7-54.5c51.5,0,94.5,36.9,104.1,86.2
			c-2.7-0.3-5.3-0.8-8.1-0.8c-5.9,0-10.7,4.8-10.7,10.7s4.8,10.7,10.7,10.7c29.4,0,53.3,23.9,53.3,53.3
			C334.9,543.7,311.1,567.8,281.7,567.8z"/>
	</g>
	<path opacity="0.1" enable-background="new    " d="M312.3,470.9c0.8,3.7,1.3,7.5,1.3,11.5c0,29.4-23.9,53.3-53.3,53.3H25.7
		c-18.9,0-35.9-7.3-49.1-18.8c10,29.5,37.6,50.8,70.4,50.8h234.7c29.4,0,53.3-23.9,53.3-53.3C335,496.4,326,480.5,312.3,470.9z"/>
	<path opacity="0.1" enable-background="new    " d="M371.3,313.4C388.1,329,399,351,399,375.8c0,41-29.1,75.3-67.7,83.5
		c7.2,6.5,13.3,14.3,17.6,23.2h7.5c47.1,0,85.3-38.3,85.3-85.3C441.7,355.1,411.2,320.4,371.3,313.4z"/>
</g>
</svg>
