<svg v-if="icon === 'google_icon'" xmlns="http://www.w3.org/2000/svg" viewBox="0 0 399.7 399"
		width="20" height="20">
		  <path d="M199.2 77.5c30.1-.1 57.7 10.6 79 28.6l48.9-58.2C292.5 18.7 247.7 1.3 198.9 1.5c-73.6.4-137.6 40.8-171.5 100.6L88.3 150c18.9-42.5 61.4-72.2 110.9-72.5z" fill="#ea4335"/>
		  <path d="M87.8 247.7c-6.3-14.6-9.8-30.7-9.9-47.6-.1-17.8 3.7-34.8 10.5-50.1l-60.9-47.9c-16.4 29-25.8 62.6-25.6 98.4.2 34.1 8.9 66.2 24.3 94.1l58-44.1 3.6-2.8z" fill="#f9bc15"/>
		  <path d="M200.8 397.5c51.9-.3 99-20.5 134.2-53.3l-60.9-47.9c-20.4 15.7-45.9 25.1-73.7 25.2-50.4.2-93.9-30.2-112.7-73.8l-3.6 2.8-58 44.1c33.8 61.6 99.4 103.3 174.7 102.9z" fill="#33a851"/>
		  <path fill="#fff200" d="M87.8 247.7l-3.7 2.8z"/>
		  <path d="M397.8 198.5c-.1-13-1.4-25.7-3.8-38l-78.4.4c4 11.9 4 11.9 0 0l-115.9.6.4 76L316 237c1.2-3.6 1.2-3.6 0 0-7.7 23.8-22.5 44.4-41.9 59.3l60.9 47.9c30.1-28.1 51.4-65.5 59.4-107.6 2.3-12.3 3.5-25.1 3.4-38.1z" fill="#547dbf"/>
		</svg>