<?xml version="1.0" encoding="utf-8"?>
<!-- Generator: Adobe Illustrator 23.0.0, SVG Export Plug-In . SVG Version: 6.00 Build 0)  -->
<svg version="1.1" id="Layer_1" xmlns="http://www.w3.org/2000/svg" xmlns:xlink="http://www.w3.org/1999/xlink" x="0px" y="0px"
	 viewBox="0 0 200 200" style="enable-background:new 0 0 200 200;" xml:space="preserve">
<style type="text/css">
	.st0{fill:#818282;}
	.st1{fill:#1FA94A;}
	.st2{fill:none;}
</style>
<g>
	<path class="st0" d="M102.25,2h-3.49C56.98,2,17.25,35.62,19.29,83.51c0.99,23.38,20.23,51.75,39.67,74.69
		c1.75,1.72,3.46,0.66,4.06,0.19l24.67-24.67c1.4-1.52,0.74-3.01,0.26-3.73c-12.2-12.71-29.29-33.21-29.97-49.25
		c-1.07-25.01,19.69-42.58,41.5-42.58h1.82c21.82,0,42.57,17.57,41.5,42.58c-0.67,15.82-17.53,36.06-29.84,48.82
		c-1.26,1.49-0.64,2.92-0.17,3.62l24.83,24.83l0.05-0.05c1.59,1.59,3.16,0.84,3.89,0.33c19.67-22.99,39.15-51.44,40.14-74.82
		C183.75,35.62,144.02,2,102.25,2"/>
	<path class="st1" d="M100.7,108.47c14.06,0,25.47-11.4,25.47-25.47s-11.4-25.47-25.47-25.47c-14.06,0-25.47,11.4-25.47,25.47
		S86.64,108.47,100.7,108.47"/>
	<path class="st1" d="M142.06,85.77c8-26.57-5.08-53.31-28.56-67.84l-2.39-1.47C99.16,9.06,84.98,5.82,71.16,6.97
		c-30.03,11.01-53.46,39.5-51.88,76.55c0.99,23.38,20.23,51.75,39.67,74.69c1.75,1.72,3.46,0.66,4.06,0.19l24.67-24.67
		c1.4-1.52,0.74-3.01,0.26-3.73c-12.2-12.71-29.29-33.21-29.97-49.25c-1.07-25.01,19.69-42.58,41.5-42.58h1.82
		c21.82,0,42.57,17.57,41.5,42.58C142.73,82.38,142.46,84.06,142.06,85.77"/>
	<path class="st0" d="M127.83,173.35c0,0,2.89-2.89,0-5.76l-24.44-24.44c0,0-2.89-2.89-5.76,0l-24.44,24.44c0,0-2.89,2.89,0,5.76
		l24.44,24.44c0,0,2.89,2.89,5.76,0L127.83,173.35z"/>
	<rect x="19.22" y="2" class="st2" width="162.58" height="197.07"/>
</g>
</svg>
